<svg
    version="1.0"
    xmlns="http://www.w3.org/2000/svg"
    xmlns:xlink="http://www.w3.org/1999/xlink"
    width="512"
    height="512"
    viewBox="0 0 512 512"
  >
    <svg id="global-svg-defs" version="1.0" xmlns="http://www.w3.org/2000/svg" width="0" height="0" viewBox="0 0 340.000000 250.000000" preserveAspectRatio="xMidYMid meet" color-interpolation-filters="sRGB" class="el-tooltip" style="margin: auto;" xmlns:xlink="http://www.w3.org/1999/xlink">
    <defs>
      <pattern id="watermark" patternUnits="userSpaceOnUse" width="100%" height="100%">
        <image xlink:href="https://www.logosc.cn/img/watermark/LOGOSC-watermark.png" x="0" y="0" width="100%" height="100%">
        </image>
      </pattern>
                    <linearGradient id="92" x1="0%" y1="0%" x2="100%" y2="0%">
          <stop offset="0%" stop-color="#fa71cd"></stop>
          <stop offset="100%" stop-color="#9b59b6"></stop>
        </linearGradient>
              <linearGradient id="93" x1="0%" y1="0%" x2="100%" y2="0%">
          <stop offset="0%" stop-color="#f9d423"></stop>
          <stop offset="100%" stop-color="#f83600"></stop>
        </linearGradient>
              <linearGradient id="94" x1="0%" y1="0%" x2="100%" y2="0%">
          <stop offset="0%" stop-color="#0064d2"></stop>
          <stop offset="100%" stop-color="#1cb0f6"></stop>
        </linearGradient>
              <linearGradient id="95" x1="0%" y1="0%" x2="100%" y2="0%">
          <stop offset="0%" stop-color="#f00978"></stop>
          <stop offset="100%" stop-color="#3f51b1"></stop>
        </linearGradient>
              <linearGradient id="96" x1="0%" y1="0%" x2="100%" y2="0%">
          <stop offset="0%" stop-color="#7873f5"></stop>
          <stop offset="100%" stop-color="#ec77ab"></stop>
        </linearGradient>
              <linearGradient id="97" x1="0%" y1="0%" x2="100%" y2="0%">
          <stop offset="0%" stop-color="#f9d423"></stop>
          <stop offset="100%" stop-color="#e14fad"></stop>
        </linearGradient>
              <linearGradient id="98" x1="0%" y1="0%" x2="100%" y2="0%">
          <stop offset="0%" stop-color="#009efd"></stop>
          <stop offset="100%" stop-color="#2af598"></stop>
        </linearGradient>
              <linearGradient id="99" x1="0%" y1="0%" x2="100%" y2="0%">
          <stop offset="0%" stop-color="#ffcc00"></stop>
          <stop offset="100%" stop-color="#00b140"></stop>
        </linearGradient>
              <linearGradient id="100" x1="0%" y1="0%" x2="100%" y2="0%">
          <stop offset="0%" stop-color="#d51007"></stop>
          <stop offset="100%" stop-color="#ff8177"></stop>
        </linearGradient>
              <linearGradient id="102" x1="0%" y1="0%" x2="100%" y2="0%">
          <stop offset="0%" stop-color="#a2b6df"></stop>
          <stop offset="100%" stop-color="#0c3483"></stop>
        </linearGradient>
              <linearGradient id="103" x1="0%" y1="0%" x2="100%" y2="0%">
          <stop offset="0%" stop-color="#7ac5d8"></stop>
          <stop offset="100%" stop-color="#eea2a2"></stop>
        </linearGradient>
              <linearGradient id="104" x1="0%" y1="0%" x2="100%" y2="0%">
          <stop offset="0%" stop-color="#00ecbc"></stop>
          <stop offset="100%" stop-color="#007adf"></stop>
        </linearGradient>
              <linearGradient id="105" x1="0%" y1="0%" x2="100%" y2="0%">
          <stop offset="0%" stop-color="#b88746"></stop>
          <stop offset="100%" stop-color="#fdf5a6"></stop>
        </linearGradient>
              <linearGradient id="107" x1="0%" y1="0%" x2="100%" y2="0%">
          <stop offset="0%" stop-color="#ffbf00"></stop>
          <stop offset="100%" stop-color="#26b5f8"></stop>
        </linearGradient>
          </defs>
  </svg>
    <rect
      x="0"
      y="0"
      width="100%"
      height="100%"
      fill="transparent"
      fill-opacity="1"
    ></rect>
    <svg data-v-0dd9719b="" version="1.0" xmlns="http://www.w3.org/2000/svg" xmlns:xlink="http://www.w3.org/1999/xlink" width="100%" height="100%" viewBox="0 0 100 100" preserveAspectRatio="xMidYMid meet" color-interpolation-filters="sRGB" style="margin: auto;"> <rect data-v-0dd9719b="" x="0" y="0" width="100%" height="100%" fill="#ffffff" fill-opacity="1" class="background" style="display: none;"/> <rect data-v-0dd9719b="" x="0" y="0" width="100%" height="100%" fill="url(#watermark)" fill-opacity="1" class="watermarklayer" style="display: none;"/> <g data-v-0dd9719b="" fill="#333" class="iconsvg-imagesvg"><rect fill="#333" fill-opacity="0" stroke-width="2" x="0" y="0" width="100" height="100" class="image-rect"/> <svg viewBox="0 0 60 60" x="0" y="0" width="100" height="100" class="image-svg-svg bn" style="overflow: visible;"><g hollow-target="iconBnFill" mask="url(#3bdfadae-a497-40c4-b14c-62532632af1f)"><g><svg xmlns="http://www.w3.org/2000/svg" xmlns:xlink="http://www.w3.org/1999/xlink" version="1.1" x="0" y="0" viewBox="5 5 90 90" enable-background="new 0 0 100 100" xml:space="preserve" style="overflow: visible;" width="60" height="60" filtersec="colorsb1882958232" filter="url(#DZZjfXb_511Hnb5mBGghV)"><g transform="scale(1, 1) skewX(0)"><path d="M75.921,5H24.305C13.752,5,5,13.752,5,24.305v51.616C5,86.472,13.752,95,24.305,95h51.616C86.472,95,95,86.472,95,75.921  V24.305C95,13.752,86.472,5,75.921,5z"/></g><defs><filter id="DZZjfXb_511Hnb5mBGghV"><feColorMatrix type="matrix" values="0 0 0 0 0.19921875  0 0 0 0 0.19921875  0 0 0 0 0.19921875  0 0 0 1 0"/></filter></defs></svg></g> <g filter="url(#colors855406914)"><svg xmlns="http://www.w3.org/2000/svg" xmlns:xlink="http://www.w3.org/1999/xlink" viewBox="0 0 138.5173125 67.61934887695314" width="45" height="45" x="7.5" y="7.5" class="image-svg-letter"><path transform="translate(-2.7466875 54.57600000000001)" d="M24.48-51.91L24.48-51.91Q27.50-50.18 34.13-50.18L34.13-50.18Q40.90-50.18 48.89-51.98L48.89-51.98Q49.03-52.06 52.78-52.70L52.78-52.70Q59.54-53.64 60.77-54.58L60.77-54.58Q63.58-53.57 65.84-51.30Q68.11-49.03 68.11-47.16L68.11-47.16Q68.11-46.30 67.75-45.86L67.75-45.86Q66.82-45.22 64.80-45.22L64.80-45.22Q63.14-45.22 60.98-45.58L60.98-45.58Q59.69-45.79 56.38-45.79L56.38-45.79Q52.20-45.79 46.91-45.47Q41.62-45.14 37.73-44.57L37.73-44.57Q37.37-44.50 37.01-44.35Q36.65-44.21 36.29-44.14L36.29-44.14Q36.65-43.49 36.72-42.91L36.72-42.91L36.36-37.37Q36.14-31.90 35.86-29.16L35.86-29.16L35.57-23.33Q34.78-11.59 34.78-5.04L34.78-5.04Q34.78 1.58 35.57 3.67L35.57 3.67Q38.23 3.17 43.13 2.74L43.13 2.74Q49.25 2.23 53.42 1.15L53.42 1.15Q53.64 1.08 54.11 0.97Q54.58 0.86 55.30 0.58L55.30 0.58Q57.10 0.07 59.04-0.43Q60.98-0.94 61.56-0.72L61.56-0.72Q63.00-0.65 64.30 0.68Q65.59 2.02 66.42 3.85Q67.25 5.69 67.25 7.27L67.25 7.27Q67.25 9.86 65.16 10.15L65.16 10.15Q64.73 9.65 60.26 9.25Q55.80 8.86 49.54 8.86L49.54 8.86Q43.63 8.86 36.94 9.29L36.94 9.29Q35.06 9.22 33.59 10.04Q32.11 10.87 30.82 12.10L30.82 12.10Q29.95 12.82 29.63 13.00Q29.30 13.18 29.09 12.67L29.09 12.67Q26.64 11.66 26.64 7.99L26.64 7.99Q26.64 6.05 27.14 3.67L27.14 3.67L27.14-0.65Q27.86-4.10 28.33-12.71Q28.80-21.31 28.80-30.02L28.80-30.02Q28.80-42.19 27.94-45.65L27.94-45.65L27.43-46.80Q25.99-48.24 25.16-49.61Q24.34-50.98 24.48-51.91L24.48-51.91ZM6.77-52.42L6.77-52.42Q13.54-52.20 17.32-50.36Q21.10-48.53 22.54-46.22L22.54-46.22Q22.46-46.15 22.18-45.22Q21.89-44.28 21.67-43.56L21.67-43.56Q20.23-38.59 19.87-38.59L19.87-38.59Q18.14-39.67 14.72-42.91Q11.30-46.15 8.82-49.03Q6.34-51.91 6.77-52.42L6.77-52.42ZM2.81-33.70L2.81-33.70Q10.44-33.41 14.22-32.22Q18.00-31.03 19.30-28.94L19.30-28.94Q19.22-28.87 18.86-27.72Q18.50-26.57 18.29-25.99L18.29-25.99Q16.85-21.10 16.49-21.10L16.49-21.10Q14.62-22.25 11.05-25.20Q7.49-28.15 4.93-30.71Q2.38-33.26 2.81-33.70L2.81-33.70ZM3.67 4.03L3.67 4.03Q5.33 3.82 8.64-0.25Q11.95-4.32 14.11-8.06L14.11-8.06L22.97-21.10Q23.11-20.09 22.86-18.68Q22.61-17.28 22.28-15.70Q21.96-14.11 21.82-13.54L21.82-13.54Q20.23-6.98 19.73-2.38L19.73-2.38Q18.14 8.71 14.76 10.15L14.76 10.15Q14.54 10.22 13.90 10.22L13.90 10.22Q12.31 10.22 10.08 9.58Q7.85 8.93 6.01 7.52Q4.18 6.12 3.67 4.03L3.67 4.03ZM135.29-43.49L135.29-43.49Q137.09-41.69 137.95-40.97L137.95-40.97Q139.75-39.31 140.51-38.45Q141.26-37.58 141.26-36.86L141.26-36.86Q141.26-35.42 137.59-34.63L137.59-34.63Q136.80-35.14 131.18-35.14L131.18-35.14Q125.64-35.14 124.78-34.70L124.78-34.70Q124.70-34.42 124.52-34.02Q124.34-33.62 124.13-32.98L124.13-32.98Q121.75-26.50 120.38-25.63L120.38-25.63L117.86-22.82Q117.86-23.18 117.14-28.08L117.14-28.08Q116.28-33.41 116.28-34.34L116.28-34.34Q108.36-34.34 99.94-33.26L99.94-33.26L99.00-30.17Q97.99-26.64 97.31-24.62Q96.62-22.61 95.90-21.53L95.90-21.53Q95.54-21.38 95.54-21.38L95.54-21.38Q94.54-22.61 93.82-24.41Q93.10-26.21 92.23-29.23L92.23-29.23Q91.37-32.11 91.30-32.26L91.30-32.26Q89.64-32.18 88.27-31.75Q86.90-31.32 85.03-30.46L85.03-30.46Q83.30-29.66 82.08-29.23Q80.86-28.80 79.42-28.73L79.42-28.73Q76.61-31.39 75.53-33.48Q74.45-35.57 73.80-38.95L73.80-38.95Q75.10-37.44 79.13-37.44L79.13-37.44Q81.65-37.44 87.05-38.23L87.05-38.23Q89.06-38.52 90.58-38.66L90.58-38.66Q90.36-39.24 90.25-39.85Q90.14-40.46 90.07-40.75L90.07-40.75Q89.93-41.62 89.75-42.19Q89.57-42.77 88.99-43.42L88.99-43.42Q88.63-43.92 88.27-45.11Q87.91-46.30 87.77-46.66L87.77-46.66Q86.76-49.61 86.33-50.40L86.33-50.40Q89.14-51.19 92.09-51.19L92.09-51.19Q96.91-51.19 99.94-49.03L99.94-49.03L99.43-40.25Q100.58-40.10 101.52-40.10L101.52-40.10Q104.47-40.10 109.08-40.61Q113.69-41.11 116.42-41.62L116.42-41.62Q116.71-42.41 116.71-45.14L116.71-45.14Q116.93-45.58 116.93-46.15L116.93-46.15Q116.93-46.66 116.42-49.03L116.42-49.03Q115.78-51.26 115.78-52.56L115.78-52.56Q115.78-53.14 115.85-53.42L115.85-53.42Q117.86-53.57 120.82-52.99Q123.77-52.42 126.04-51.37Q128.30-50.33 128.66-48.96L128.66-48.96Q126.94-46.94 125.42-41.69L125.42-41.69Q126.22-42.26 130.57-42.84Q134.93-43.42 135.29-43.49L135.29-43.49ZM119.88-50.04L119.88-50.04Q119.66-50.11 119.20-50.36Q118.73-50.62 118.08-50.76L118.08-50.76Q118.15-50.54 118.33-50.18Q118.51-49.82 118.80-49.72Q119.09-49.61 119.66-49.54L119.66-49.54L119.88-50.04ZM121.46-47.88L121.46-47.88Q121.46-47.88 122.18-48.60L122.18-48.60Q122.11-48.89 121.97-49.03L121.97-49.03Q121.82-49.25 121.79-49.36Q121.75-49.46 121.64-49.46Q121.54-49.46 121.18-49.54L121.18-49.54Q121.03-49.61 120.24-49.75L120.24-49.75Q120.24-48.96 120.42-48.56Q120.60-48.17 121.18-47.88L121.18-47.88L121.18-47.59L121.46-47.88ZM81.22-33.41L81.22-33.41Q81.29-33.77 81.50-34.06L81.50-34.06L79.42-34.34Q79.27-34.20 79.16-34.09Q79.06-33.98 78.91-33.70L78.91-33.70L79.13-33.70Q79.63-33.26 80.14-33.26L80.14-33.26Q80.35-33.26 81.22-33.41L81.22-33.41ZM110.23-8.78L110.23-8.78Q109.66-10.15 108.68-11.74Q107.71-13.32 107.50-13.68L107.50-13.68Q105.70-16.49 104.80-18.29Q103.90-20.09 103.68-21.89L103.68-21.89Q106.49-21.67 109.33-20.27Q112.18-18.86 114.26-17.50Q116.35-16.13 116.93-15.77L116.93-15.77Q116.28-8.50 111.96-8.50L111.96-8.50Q111.53-8.50 110.23-8.78L110.23-8.78ZM123.77-20.16L123.77-20.16Q125.35-19.87 131.62-17.57Q137.88-15.26 138.31-14.54L138.31-14.54Q139.39-13.18 139.39-10.73L139.39-10.73Q139.39-7.92 138.13-5.58Q136.87-3.24 134.86-3.24L134.86-3.24Q132.84-5.47 129.42-10.66Q126.00-15.84 123.77-20.16L123.77-20.16ZM131.47 0.94L131.47 0.94Q132.70 2.45 133.13 3.24Q133.56 4.03 133.56 4.97L133.56 4.97Q133.56 6.12 132.70 8.50L132.70 8.50Q127.08 11.66 119.59 11.66L119.59 11.66Q114.98 11.66 110.59 10.48Q106.20 9.29 103.10 7.20L103.10 7.20Q100.58 5.76 97.92 1.76Q95.26-2.23 93.53-6.91Q91.80-11.59 91.80-15.12L91.80-15.12Q91.80-16.34 92.02-17.28L92.02-17.28Q92.66-16.56 95.18-13.18L95.18-13.18Q98.28-8.86 100.91-5.90Q103.54-2.95 107.24-0.68Q110.95 1.58 115.34 1.58L115.34 1.58Q117.86 1.58 120.67 0.72L120.67 0.72Q121.90-1.58 122.40-3.17Q122.90-4.75 123.41-7.49L123.41-7.49L123.84-9.65Q125.71-7.56 127.30-4.03L127.30-4.03Q128.09-2.30 128.63-1.58Q129.17-0.86 130.10-0.79L130.10-0.79L131.47 0.94ZM78.91 6.84L78.91 6.84Q78.55 6.55 76.93 5.04Q75.31 3.53 74.52 1.69Q73.73-0.14 73.73-2.38L73.73-2.38Q76.75-4.97 81.40-9.86Q86.04-14.76 86.62-16.20L86.62-16.20Q86.69-15.77 86.69-14.54L86.69-14.54Q86.69-11.02 85.61-5.87Q84.53-0.72 82.73 3.06Q80.93 6.84 78.91 6.84L78.91 6.84ZM122.90 5.69L122.90 5.69Q121.18 5.54 120.67 5.40L120.67 5.40L120.89 6.84L121.32 7.34L121.61 7.34Q121.82 6.70 122.04 6.48Q122.26 6.26 122.90 5.90L122.90 5.90L122.90 5.69Z"/></svg></g></g><mask id="3bdfadae-a497-40c4-b14c-62532632af1f"><g fill="white"><svg xmlns="http://www.w3.org/2000/svg" xmlns:xlink="http://www.w3.org/1999/xlink" version="1.1" x="0" y="0" viewBox="5 5 90 90" enable-background="new 0 0 100 100" xml:space="preserve" style="overflow: visible;" width="60" height="60" filtersec="colorsb1882958232"><g transform="scale(1, 1) skewX(0)"><path d="M75.921,5H24.305C13.752,5,5,13.752,5,24.305v51.616C5,86.472,13.752,95,24.305,95h51.616C86.472,95,95,86.472,95,75.921  V24.305C95,13.752,86.472,5,75.921,5z"/></g><defs/></svg></g> <g fill="black"><svg xmlns="http://www.w3.org/2000/svg" xmlns:xlink="http://www.w3.org/1999/xlink" viewBox="0 0 138.5173125 67.61934887695314" width="45" height="45" x="7.5" y="7.5" class="image-svg-letter"><path transform="translate(-2.7466875 54.57600000000001)" d="M24.48-51.91L24.48-51.91Q27.50-50.18 34.13-50.18L34.13-50.18Q40.90-50.18 48.89-51.98L48.89-51.98Q49.03-52.06 52.78-52.70L52.78-52.70Q59.54-53.64 60.77-54.58L60.77-54.58Q63.58-53.57 65.84-51.30Q68.11-49.03 68.11-47.16L68.11-47.16Q68.11-46.30 67.75-45.86L67.75-45.86Q66.82-45.22 64.80-45.22L64.80-45.22Q63.14-45.22 60.98-45.58L60.98-45.58Q59.69-45.79 56.38-45.79L56.38-45.79Q52.20-45.79 46.91-45.47Q41.62-45.14 37.73-44.57L37.73-44.57Q37.37-44.50 37.01-44.35Q36.65-44.21 36.29-44.14L36.29-44.14Q36.65-43.49 36.72-42.91L36.72-42.91L36.36-37.37Q36.14-31.90 35.86-29.16L35.86-29.16L35.57-23.33Q34.78-11.59 34.78-5.04L34.78-5.04Q34.78 1.58 35.57 3.67L35.57 3.67Q38.23 3.17 43.13 2.74L43.13 2.74Q49.25 2.23 53.42 1.15L53.42 1.15Q53.64 1.08 54.11 0.97Q54.58 0.86 55.30 0.58L55.30 0.58Q57.10 0.07 59.04-0.43Q60.98-0.94 61.56-0.72L61.56-0.72Q63.00-0.65 64.30 0.68Q65.59 2.02 66.42 3.85Q67.25 5.69 67.25 7.27L67.25 7.27Q67.25 9.86 65.16 10.15L65.16 10.15Q64.73 9.65 60.26 9.25Q55.80 8.86 49.54 8.86L49.54 8.86Q43.63 8.86 36.94 9.29L36.94 9.29Q35.06 9.22 33.59 10.04Q32.11 10.87 30.82 12.10L30.82 12.10Q29.95 12.82 29.63 13.00Q29.30 13.18 29.09 12.67L29.09 12.67Q26.64 11.66 26.64 7.99L26.64 7.99Q26.64 6.05 27.14 3.67L27.14 3.67L27.14-0.65Q27.86-4.10 28.33-12.71Q28.80-21.31 28.80-30.02L28.80-30.02Q28.80-42.19 27.94-45.65L27.94-45.65L27.43-46.80Q25.99-48.24 25.16-49.61Q24.34-50.98 24.48-51.91L24.48-51.91ZM6.77-52.42L6.77-52.42Q13.54-52.20 17.32-50.36Q21.10-48.53 22.54-46.22L22.54-46.22Q22.46-46.15 22.18-45.22Q21.89-44.28 21.67-43.56L21.67-43.56Q20.23-38.59 19.87-38.59L19.87-38.59Q18.14-39.67 14.72-42.91Q11.30-46.15 8.82-49.03Q6.34-51.91 6.77-52.42L6.77-52.42ZM2.81-33.70L2.81-33.70Q10.44-33.41 14.22-32.22Q18.00-31.03 19.30-28.94L19.30-28.94Q19.22-28.87 18.86-27.72Q18.50-26.57 18.29-25.99L18.29-25.99Q16.85-21.10 16.49-21.10L16.49-21.10Q14.62-22.25 11.05-25.20Q7.49-28.15 4.93-30.71Q2.38-33.26 2.81-33.70L2.81-33.70ZM3.67 4.03L3.67 4.03Q5.33 3.82 8.64-0.25Q11.95-4.32 14.11-8.06L14.11-8.06L22.97-21.10Q23.11-20.09 22.86-18.68Q22.61-17.28 22.28-15.70Q21.96-14.11 21.82-13.54L21.82-13.54Q20.23-6.98 19.73-2.38L19.73-2.38Q18.14 8.71 14.76 10.15L14.76 10.15Q14.54 10.22 13.90 10.22L13.90 10.22Q12.31 10.22 10.08 9.58Q7.85 8.93 6.01 7.52Q4.18 6.12 3.67 4.03L3.67 4.03ZM135.29-43.49L135.29-43.49Q137.09-41.69 137.95-40.97L137.95-40.97Q139.75-39.31 140.51-38.45Q141.26-37.58 141.26-36.86L141.26-36.86Q141.26-35.42 137.59-34.63L137.59-34.63Q136.80-35.14 131.18-35.14L131.18-35.14Q125.64-35.14 124.78-34.70L124.78-34.70Q124.70-34.42 124.52-34.02Q124.34-33.62 124.13-32.98L124.13-32.98Q121.75-26.50 120.38-25.63L120.38-25.63L117.86-22.82Q117.86-23.18 117.14-28.08L117.14-28.08Q116.28-33.41 116.28-34.34L116.28-34.34Q108.36-34.34 99.94-33.26L99.94-33.26L99.00-30.17Q97.99-26.64 97.31-24.62Q96.62-22.61 95.90-21.53L95.90-21.53Q95.54-21.38 95.54-21.38L95.54-21.38Q94.54-22.61 93.82-24.41Q93.10-26.21 92.23-29.23L92.23-29.23Q91.37-32.11 91.30-32.26L91.30-32.26Q89.64-32.18 88.27-31.75Q86.90-31.32 85.03-30.46L85.03-30.46Q83.30-29.66 82.08-29.23Q80.86-28.80 79.42-28.73L79.42-28.73Q76.61-31.39 75.53-33.48Q74.45-35.57 73.80-38.95L73.80-38.95Q75.10-37.44 79.13-37.44L79.13-37.44Q81.65-37.44 87.05-38.23L87.05-38.23Q89.06-38.52 90.58-38.66L90.58-38.66Q90.36-39.24 90.25-39.85Q90.14-40.46 90.07-40.75L90.07-40.75Q89.93-41.62 89.75-42.19Q89.57-42.77 88.99-43.42L88.99-43.42Q88.63-43.92 88.27-45.11Q87.91-46.30 87.77-46.66L87.77-46.66Q86.76-49.61 86.33-50.40L86.33-50.40Q89.14-51.19 92.09-51.19L92.09-51.19Q96.91-51.19 99.94-49.03L99.94-49.03L99.43-40.25Q100.58-40.10 101.52-40.10L101.52-40.10Q104.47-40.10 109.08-40.61Q113.69-41.11 116.42-41.62L116.42-41.62Q116.71-42.41 116.71-45.14L116.71-45.14Q116.93-45.58 116.93-46.15L116.93-46.15Q116.93-46.66 116.42-49.03L116.42-49.03Q115.78-51.26 115.78-52.56L115.78-52.56Q115.78-53.14 115.85-53.42L115.85-53.42Q117.86-53.57 120.82-52.99Q123.77-52.42 126.04-51.37Q128.30-50.33 128.66-48.96L128.66-48.96Q126.94-46.94 125.42-41.69L125.42-41.69Q126.22-42.26 130.57-42.84Q134.93-43.42 135.29-43.49L135.29-43.49ZM119.88-50.04L119.88-50.04Q119.66-50.11 119.20-50.36Q118.73-50.62 118.08-50.76L118.08-50.76Q118.15-50.54 118.33-50.18Q118.51-49.82 118.80-49.72Q119.09-49.61 119.66-49.54L119.66-49.54L119.88-50.04ZM121.46-47.88L121.46-47.88Q121.46-47.88 122.18-48.60L122.18-48.60Q122.11-48.89 121.97-49.03L121.97-49.03Q121.82-49.25 121.79-49.36Q121.75-49.46 121.64-49.46Q121.54-49.46 121.18-49.54L121.18-49.54Q121.03-49.61 120.24-49.75L120.24-49.75Q120.24-48.96 120.42-48.56Q120.60-48.17 121.18-47.88L121.18-47.88L121.18-47.59L121.46-47.88ZM81.22-33.41L81.22-33.41Q81.29-33.77 81.50-34.06L81.50-34.06L79.42-34.34Q79.27-34.20 79.16-34.09Q79.06-33.98 78.91-33.70L78.91-33.70L79.13-33.70Q79.63-33.26 80.14-33.26L80.14-33.26Q80.35-33.26 81.22-33.41L81.22-33.41ZM110.23-8.78L110.23-8.78Q109.66-10.15 108.68-11.74Q107.71-13.32 107.50-13.68L107.50-13.68Q105.70-16.49 104.80-18.29Q103.90-20.09 103.68-21.89L103.68-21.89Q106.49-21.67 109.33-20.27Q112.18-18.86 114.26-17.50Q116.35-16.13 116.93-15.77L116.93-15.77Q116.28-8.50 111.96-8.50L111.96-8.50Q111.53-8.50 110.23-8.78L110.23-8.78ZM123.77-20.16L123.77-20.16Q125.35-19.87 131.62-17.57Q137.88-15.26 138.31-14.54L138.31-14.54Q139.39-13.18 139.39-10.73L139.39-10.73Q139.39-7.92 138.13-5.58Q136.87-3.24 134.86-3.24L134.86-3.24Q132.84-5.47 129.42-10.66Q126.00-15.84 123.77-20.16L123.77-20.16ZM131.47 0.94L131.47 0.94Q132.70 2.45 133.13 3.24Q133.56 4.03 133.56 4.97L133.56 4.97Q133.56 6.12 132.70 8.50L132.70 8.50Q127.08 11.66 119.59 11.66L119.59 11.66Q114.98 11.66 110.59 10.48Q106.20 9.29 103.10 7.20L103.10 7.20Q100.58 5.76 97.92 1.76Q95.26-2.23 93.53-6.91Q91.80-11.59 91.80-15.12L91.80-15.12Q91.80-16.34 92.02-17.28L92.02-17.28Q92.66-16.56 95.18-13.18L95.18-13.18Q98.28-8.86 100.91-5.90Q103.54-2.95 107.24-0.68Q110.95 1.58 115.34 1.58L115.34 1.58Q117.86 1.58 120.67 0.72L120.67 0.72Q121.90-1.58 122.40-3.17Q122.90-4.75 123.41-7.49L123.41-7.49L123.84-9.65Q125.71-7.56 127.30-4.03L127.30-4.03Q128.09-2.30 128.63-1.58Q129.17-0.86 130.10-0.79L130.10-0.79L131.47 0.94ZM78.91 6.84L78.91 6.84Q78.55 6.55 76.93 5.04Q75.31 3.53 74.52 1.69Q73.73-0.14 73.73-2.38L73.73-2.38Q76.75-4.97 81.40-9.86Q86.04-14.76 86.62-16.20L86.62-16.20Q86.69-15.77 86.69-14.54L86.69-14.54Q86.69-11.02 85.61-5.87Q84.53-0.72 82.73 3.06Q80.93 6.84 78.91 6.84L78.91 6.84ZM122.90 5.69L122.90 5.69Q121.18 5.54 120.67 5.40L120.67 5.40L120.89 6.84L121.32 7.34L121.61 7.34Q121.82 6.70 122.04 6.48Q122.26 6.26 122.90 5.90L122.90 5.90L122.90 5.69Z"/></svg></g></mask></svg> <defs><filter id="colors855406914"><feColorMatrix type="matrix" values="0 0 0 0 0.19921875  0 0 0 0 0.19921875  0 0 0 0 0.19921875  0 0 0 1 0" class="icon-fecolormatrix"/></filter> <filter id="colorsf9869838878"><feColorMatrix type="matrix" values="0 0 0 0 0.99609375  0 0 0 0 0.99609375  0 0 0 0 0.99609375  0 0 0 1 0" class="icon-fecolormatrix"/></filter> <filter id="colorsb1882958232"><feColorMatrix type="matrix" values="0 0 0 0 0  0 0 0 0 0  0 0 0 0 0  0 0 0 1 0" class="icon-fecolormatrix"/></filter></defs></g><defs v-gra="od"/></svg>
  </svg>